<?xml version="1.0" encoding="UTF-8" standalone="no"?>
<!-- Created with Inkscape (http://www.inkscape.org/) -->

<svg
   version="1.1"
   id="svg1"
   width="254.12933"
   height="256.22043"
   viewBox="0 0 254.12933 256.22043"
   sodipodi:docname="zap.png"
   xmlns:inkscape="http://www.inkscape.org/namespaces/inkscape"
   xmlns:sodipodi="http://sodipodi.sourceforge.net/DTD/sodipodi-0.dtd"
   xmlns="http://www.w3.org/2000/svg"
   xmlns:svg="http://www.w3.org/2000/svg">
  <defs
     id="defs1" />
  <sodipodi:namedview
     id="namedview1"
     pagecolor="#ffffff"
     bordercolor="#000000"
     borderopacity="0.25"
     inkscape:showpageshadow="2"
     inkscape:pageopacity="0.0"
     inkscape:pagecheckerboard="0"
     inkscape:deskcolor="#d1d1d1" />
  <g
     inkscape:groupmode="layer"
     inkscape:label="Image"
     id="g1"
     transform="translate(-540.44916,104.82382)">
    <circle
       style="fill:#2aa81a;fill-opacity:1;stroke-width:0.5"
       id="path2"
       cx="669.96893"
       cy="23.229813"
       r="91.863358" />
    <path
       style="fill:#ffffff;stroke:none"
       d="m 657.09317,-104.10979 c -25.185,3.31655 -47.52308,10.834752 -68,26.324086 -12.59956,9.53067 -23.13913,21.636734 -31.13889,35.251541 -42.46907,72.27829 -4.29158,169.401913 78.13889,190.104933 16.10584,4.04509 32.57938,4.82466 49,2.61266 18.49489,-2.49143 36.26074,-9.13231 52,-19.15355 11.9391,-7.60166 22.28362,-17.45326 30.98534,-28.56404 55.1165,-70.375369 19.9951,-177.859301 -65.98534,-202.290133 -14.17871,-4.028797 -30.29306,-6.222197 -45,-4.285497 m 2,63.86498 c 65.65463,-8.53183 99.21359,82.397079 42,117.24692 -7.87492,4.79677 -16.84828,7.98509 -26,9.17437 -13.30006,1.72835 -23.46199,-4.02836 -36,-5.29167 -5.1983,-0.52377 -10.97184,2.03992 -16,3.15665 -3.56583,0.79195 -15.27032,5.35037 -17.93287,1.80632 -1.73477,-2.3091 0.0327,-6.8786 0.53318,-9.38194 1.46338,-7.32016 4.29669,-15.51767 4.21682,-23 -0.12241,-11.467593 -6.30568,-21.962069 -5.77778,-34.000003 1.31858,-30.0681 25.19185,-55.842193 54.96065,-59.710647 m -37,109.71065 c 5.89769,-1.14374 12.9819,-4.07758 19,-3.30016 5.13629,0.6635 9.91911,3.86766 15,5.06404 11.92851,2.80878 25.38388,0.93225 36,-5.22839 6.99503,-4.0593 12.92317,-9.73998 17.30016,-16.53549 3.91343,-6.075839 5.94815,-12.903933 6.97069,-20.000003 8.2895,-57.526443 -78.91697,-78.460052 -95.83104,-22.0000001 -5.12287,17.1004031 2.45675,26.9800721 4.14199,43.0000031 0.65226,6.20047 -2.31291,12.75348 -2.5818,19 m 22.98534,-76.3379541 c 6.60138,-1.926453 11.71013,12.458587 10.48997,17.3379511 -0.66887,2.67482 -2.98358,5.096588 -2.45524,8 0.58306,3.204163 3.81976,5.815003 5.98379,7.999237 3.76654,3.801667 8.59432,9.444733 13.99614,10.861878 4.67182,1.225616 8.29801,-3.67154 13,-3.712967 13.69243,-0.120621 20.79285,11.930038 5.99924,18.712205 -19.78255,9.06933 -45.32813,-15.126405 -53.18905,-30.860353 -4.16909,-8.344604 -5.62621,-24.8940271 6.17515,-28.3379511 z"
       id="path1" />
  </g>
</svg>
